<!-- Generated by IcoMoon.io -->
<svg version="1.1" xmlns="http://www.w3.org/2000/svg" width="31" height="32" viewBox="0 0 31 32">
<title>Logo</title>
<path d="M7.649 4.449l-7.649 4.371v14.205l7.337 4.137c4.059 2.185 7.805 4.059 8.273 4.059s4.215-1.873 8.273-4.059l7.337-4.137v-14.361l-7.727-4.293c-4.215-2.42-7.883-4.371-7.961-4.293-0.156 0-3.746 1.951-7.883 4.371zM18.654 2.888c1.327 0.78 2.419 1.561 2.419 1.795s-1.171 1.093-2.576 1.795c-2.498 1.405-2.732 1.405-5.463 0.078-1.561-0.78-2.888-1.639-2.888-1.873 0-0.468 4.527-2.966 5.62-3.044 0.234-0.078 1.561 0.546 2.888 1.249zM11.629 7.102l2.654 1.639-3.278 1.873c-3.044 1.717-3.512 1.795-5.541 0.702-3.434-1.795-3.434-2.498-0.234-4.215 3.668-1.951 3.2-1.951 6.4 0zM26.537 7.337l3.356 1.873-3.044 1.561c-3.044 1.561-3.122 1.561-6.010 0.078-3.434-1.795-3.59-2.576-0.702-4.137 2.732-1.561 2.576-1.561 6.4 0.624zM14.829 12.488c0 2.654 0 2.654-2.732 1.405-2.419-1.093-2.498-1.717-0.156-2.81 2.576-1.249 2.888-1.171 2.888 1.405zM20.293 12.488c0 0.312-0.859 0.937-1.951 1.405-1.873 0.859-1.951 0.78-1.951-1.405s0.078-2.263 1.951-1.405c1.093 0.468 1.951 1.093 1.951 1.405zM4.683 12.098c3.122 1.639 3.122 4.293 0.078 6.088-1.249 0.702-2.498 1.327-2.732 1.327s-0.468-1.951-0.468-4.293c0-2.341 0.156-4.293 0.39-4.293 0.312 0 1.483 0.546 2.732 1.171zM29.659 15.22v4.293l-2.732-1.327c-3.356-1.639-3.59-3.98-0.546-5.854 1.171-0.78 2.341-1.405 2.732-1.405 0.312 0 0.546 1.951 0.546 4.293zM13.268 16c0 0.156-1.015 0.859-2.341 1.561l-2.341 1.249v-5.62l2.341 1.249c1.327 0.702 2.341 1.405 2.341 1.561zM23.415 16c0 1.483-0.156 2.732-0.39 2.732-0.702 0-5.073-2.341-5.073-2.732s4.059-2.654 4.917-2.732c0.312 0 0.546 1.249 0.546 2.732zM14.829 19.512c0 2.185-0.078 2.263-1.951 1.405-2.263-1.015-2.419-1.795-0.546-2.888 2.107-1.249 2.498-1.015 2.498 1.483zM19.122 18.107c1.093 0.468 1.951 1.093 1.951 1.405 0 0.468-3.434 2.341-4.293 2.341-0.234 0-0.39-1.093-0.39-2.341 0-2.654 0-2.654 2.732-1.405zM7.024 21.854c0 3.512 0 3.59-3.122 1.951-2.888-1.483-2.966-2.341-0.156-3.824 3.044-1.717 3.278-1.561 3.278 1.873zM27.395 19.98c2.81 1.405 2.654 2.185-0.702 4.293l-2.498 1.639v-3.59c0-1.951 0.156-3.59 0.39-3.59 0.312 0 1.561 0.546 2.81 1.249zM13.268 23.024c0 0.156-1.015 0.859-2.341 1.561l-2.341 1.249v-5.62l2.341 1.249c1.327 0.702 2.341 1.405 2.341 1.561zM22.634 23.024v2.81l-2.341-1.249c-1.249-0.702-2.341-1.405-2.341-1.561 0-0.312 3.824-2.576 4.527-2.732 0.078 0 0.156 1.249 0.156 2.732zM18.888 25.288l2.966 1.795-6.244 3.434-2.81-1.639c-2.966-1.873-2.966-1.873 0.234-3.98 2.732-1.717 2.42-1.717 5.854 0.39z"></path>
</svg>
