<?xml version="1.0" encoding="utf-8"?>
<!-- Generated by IcoMoon.io -->
<svg version="1.1" xmlns="http://www.w3.org/2000/svg" xmlns:xlink="http://www.w3.org/1999/xlink">
<defs>
<symbol id="icon-logo" viewBox="0 0 32 32">
<path fill="#5c81e1" style="fill: var(--color1, #5c81e1)" d="M5.581 3.827v-0.877c-0.001-0.015-0.001-0.032-0.001-0.049 0-0.552 0.448-1 1-1 0.003 0 0.007 0 0.010 0h-0c0.157-0.010 0.34-0.015 0.524-0.015s0.368 0.006 0.549 0.017l-0.025-0.001c1.008 0 1.86 0 2.639-0.992 1.041-1.393 3.229-1.114 4.253 0.361 0.218 0.381 0.622 0.634 1.085 0.634 0.059 0 0.118-0.004 0.175-0.012l-0.007 0.001c0.508-0.049 1.024 0 1.541 0 1.123 0 1.409 0.287 1.483 1.434 0 0.131 0 0.254 0.066 0.516h2.409c0.076-0.007 0.163-0.011 0.252-0.011 1.607 0 2.909 1.302 2.909 2.909 0 0.102-0.005 0.203-0.015 0.302l0.001-0.012v21.732c0.011 0.096 0.017 0.207 0.017 0.319 0 1.611-1.306 2.917-2.917 2.917-0.107 0-0.213-0.006-0.317-0.017l0.013 0.001q-9.055 0-18.11 0c-0.075 0.007-0.163 0.011-0.252 0.011-1.584 0-2.868-1.284-2.868-2.868 0-0.099 0.005-0.197 0.015-0.294l-0.001 0.012q0-10.915 0-21.839c0-2.040 1.164-3.171 3.22-3.179zM2.049 17.848c0 3.581 0 7.162 0 10.743 0 1.106 0.229 1.328 1.328 1.328h17.537c1.295 0 1.467-0.188 1.467-1.516v-19.233c0-0.697 0-1.401 0-2.098 0-0.901-0.279-1.164-1.155-1.188-0.236-0.011-0.512-0.017-0.789-0.017-0.434 0-0.865 0.015-1.292 0.045l0.058-0.003c-0.334 0.040-0.622 0.21-0.817 0.456l-0.002 0.003c-0.536 0.804-1.434 1.33-2.456 1.344l-0.002 0c-2.508 0-5.015 0.066-7.514-0.049-0.812-0.029-1.536-0.378-2.056-0.925l-0.001-0.001c-0.374-0.542-0.992-0.892-1.691-0.892-0.126 0-0.25 0.011-0.37 0.033l0.013-0.002c-0.262 0-0.541 0-0.819 0-1.254 0-1.45 0.197-1.45 1.459 0.008 3.507 0.016 7.006 0.016 10.514zM7.728 3.95c-0.205 1.401 0.049 1.729 1.27 1.729h6.375c1.295 0 1.557-0.328 1.278-1.737-0.746 0-1.516 0-2.286 0-0.044 0.006-0.094 0.009-0.146 0.009-0.599 0-1.096-0.437-1.189-1.010l-0.001-0.007c-0.090-0.32-0.533-0.762-0.819-0.754s-0.697 0.451-0.819 0.778c-0.079 0.558-0.554 0.983-1.128 0.983-0.047 0-0.094-0.003-0.139-0.008l0.005 0.001z"></path>
<path fill="#5c81e1" style="fill: var(--color1, #5c81e1)" d="M26.083 15.906c0-2.344 0-4.687 0-7.031 0-1.86 1.172-3.139 2.844-3.147s2.893 1.287 2.901 3.188c0 4.392 0 8.776 0 13.169-0.040 1.11-0.217 2.162-0.514 3.163l0.023-0.090c-0.361 1.352-0.819 2.663-1.287 3.999-0.172 0.557-0.451 1.008-1.098 0.992s-0.869-0.41-1.041-0.951c-0.549-1.721-1.131-3.425-1.639-5.146-0.080-0.271-0.125-0.583-0.125-0.906 0-0.045 0.001-0.089 0.003-0.133l-0 0.006c-0.066-2.409-0.066-4.786-0.066-7.113zM28.214 13.357v8.285h1.532v-8.285zM29.787 11.177c0.024-0.395 0.037-0.858 0.037-1.323s-0.013-0.928-0.040-1.387l0.003 0.063c0-0.279-0.533-0.746-0.746-0.713-0.383 0.114-0.683 0.398-0.817 0.762l-0.003 0.009c-0.068 0.34-0.107 0.731-0.107 1.131 0 0.158 0.006 0.315 0.018 0.471l-0.001-0.021c0 1.147 0 1.155 1.172 1.082 0.131 0 0.254-0.041 0.451-0.074zM28.87 25.493h0.164c0.104-0.237 0.208-0.528 0.292-0.828l0.012-0.049c0.027-0.204 0.043-0.439 0.043-0.678 0-0.050-0.001-0.099-0.002-0.149l0 0.007h-1.065z"></path>
<path fill="#5c81e1" style="fill: var(--color1, #5c81e1)" d="M7.973 12.185c0.5 0.533 0.819 0.869 1.164 1.229 0.245 0.188 0.401 0.48 0.401 0.809 0 0.561-0.455 1.016-1.016 1.016-0.321 0-0.607-0.149-0.793-0.381l-0.002-0.002c-0.336-0.355-0.656-0.738-0.951-1.138l-0.024-0.034-1.213 1.106c-0.186 0.234-0.471 0.382-0.79 0.382-0.281 0-0.535-0.115-0.718-0.3l-0-0c-0.221-0.177-0.361-0.447-0.361-0.75s0.14-0.573 0.359-0.748l0.002-0.001c0.344-0.309 0.718-0.608 1.109-0.884l0.038-0.026c-0.467-0.5-0.762-0.819-1.074-1.155-0.265-0.189-0.435-0.496-0.435-0.842 0-0.282 0.113-0.537 0.296-0.723l-0 0c0.418-0.483 1.049-0.443 1.639 0.131 0.266 0.306 0.52 0.643 0.749 0.998l0.021 0.035h0.402c0.29-0.433 0.576-0.807 0.882-1.163l-0.013 0.016c0.176-0.224 0.446-0.366 0.75-0.366s0.574 0.142 0.748 0.364l0.002 0.002c0.19 0.181 0.309 0.436 0.309 0.719 0 0.321-0.152 0.606-0.388 0.787l-0.002 0.002c-0.303 0.295-0.672 0.541-1.090 0.918z"></path>
<path fill="#5c81e1" style="fill: var(--color1, #5c81e1)" d="M6.736 19.298c0.901-0.934 1.745-1.909 2.63-2.819 0.615-0.639 1.229-0.721 1.688-0.279s0.41 1.090-0.246 1.745c-1.106 1.098-2.213 2.204-3.335 3.278-0.193 0.28-0.512 0.461-0.873 0.461s-0.68-0.181-0.87-0.457l-0.002-0.004c-0.565-0.541-1.106-1.098-1.639-1.639-0.216-0.18-0.352-0.449-0.352-0.75s0.136-0.57 0.35-0.749l0.002-0.001c0.178-0.202 0.438-0.329 0.726-0.329 0.315 0 0.595 0.151 0.771 0.384l0.002 0.002z"></path>
<path fill="#5c81e1" style="fill: var(--color1, #5c81e1)" d="M6.629 25.985c1.090-1.188 1.991-2.188 2.909-3.163 0.183-0.247 0.472-0.405 0.799-0.405 0.278 0 0.528 0.114 0.709 0.298l0 0c0.219 0.168 0.359 0.429 0.359 0.724 0 0.26-0.109 0.495-0.284 0.661l-0 0c-1.27 1.311-2.581 2.598-3.901 3.86-0.163 0.179-0.396 0.29-0.656 0.29s-0.493-0.112-0.655-0.29l-0.001-0.001c-0.647-0.606-1.278-1.237-1.885-1.877-0.203-0.175-0.331-0.433-0.331-0.721s0.128-0.546 0.33-0.72l0.001-0.001c0.174-0.206 0.432-0.336 0.721-0.336s0.547 0.13 0.72 0.334l0.001 0.001c0.344 0.279 0.623 0.705 1.164 1.344z"></path>
<path fill="#5c81e1" style="fill: var(--color1, #5c81e1)" d="M16.897 19.823c-0.885 0-1.77 0-2.655 0-0.754 0-1.205-0.418-1.205-1.016 0.010-0.581 0.483-1.048 1.065-1.048 0.043 0 0.086 0.003 0.128 0.008l-0.005-0c1.778 0 3.548 0 5.326 0 0.721 0 1.205 0.467 1.155 1.065-0.014 0.551-0.463 0.992-1.016 0.992-0.046 0-0.092-0.003-0.137-0.009l0.005 0.001z"></path>
<path fill="#5c81e1" style="fill: var(--color1, #5c81e1)" d="M16.856 13.324c-0.885 0-1.778 0-2.663 0-0.032 0.004-0.069 0.005-0.107 0.005-0.575 0-1.041-0.466-1.041-1.041 0-0.011 0-0.021 0-0.032l-0 0.002c0.014-0.551 0.463-0.992 1.016-0.992 0.046 0 0.092 0.003 0.137 0.009l-0.005-0.001c1.778 0 3.548 0 5.326 0 0.039-0.005 0.085-0.008 0.131-0.008 0.58 0 1.051 0.463 1.065 1.039l0 0.001c0 0.598-0.467 1.008-1.205 1.016-0.885 0.008-1.77 0-2.655 0z"></path>
<path fill="#5c81e1" style="fill: var(--color1, #5c81e1)" d="M16.889 26.329c-0.885 0-1.77 0-2.655 0s-1.196-0.418-1.196-1.024 0.426-1.008 1.246-1.016c1.745 0 3.491 0 5.228 0 0.68 0 1.164 0.279 1.237 0.992s-0.426 1.041-1.237 1.057-1.762-0.008-2.622-0.008z"></path>
</symbol>
<symbol id="icon-check" viewBox="0 0 35 32">
<path stroke-linejoin="miter" stroke-linecap="round" stroke-miterlimit="4" stroke-width="5.3333" d="M2.667 2.667l14.667 24 14.667-24"></path>
</symbol>

</defs>
</svg>